<svg xmlns="http://www.w3.org/2000/svg" width="33" height="32" fill="currentColor" viewBox="0 0 33 32">
  <path fill-rule="evenodd" d="M7.097 5 27.8 25.77 26.574 27l-3.888-3.9a14.2 14.2 0 0 1-4.644 2.254c-.93.26-1.945.334-2.944.092-2.773-.673-7.041-2.906-9.158-8.271l-.14-.355.132-.357C6.46 15.036 7.6 12.94 9.34 11.184c.242-.243.495-.48.762-.71L5.871 6.23 7.097 5Zm5.691 3.748a9.197 9.197 0 0 1 3.772-.806c2.6 0 8.13 1.766 10.628 8.521l.117.314-.098.322c-.306 1.009-1.023 2.446-2.237 3.87l-1.385-1.389c.848-1.017 1.384-2.014 1.659-2.75-2.217-5.583-6.785-6.918-8.684-6.918-.8 0-1.552.13-2.255.358l-1.517-1.52Zm4.122 4.136c1.854.167 3.334 1.655 3.518 3.53l-3.518-3.53Zm4.373 8.808-2.032-2.039a3.847 3.847 0 0 1-2.69 1.097c-2.148 0-3.888-1.765-3.888-3.941 0-1.044.4-1.993 1.054-2.698l-2.238-2.245a11.24 11.24 0 0 0-.779.715 13.824 13.824 0 0 0-2.818 4.22c1.87 4.369 5.395 6.18 7.658 6.728.62.15 1.298.115 1.974-.074a12.327 12.327 0 0 0 3.759-1.763Zm-3.415-3.426-2.759-2.768a1.979 1.979 0 0 0-.492 1.31c0 1.09.87 1.971 1.943 1.971.504 0 .963-.194 1.309-.513Z" clip-rule="evenodd"/>
</svg>
