<svg xmlns="http://www.w3.org/2000/svg" width="32" height="32" fill="currentColor" viewBox="0 0 32 32">
  <path fill-rule="evenodd" d="m26 13.702-10-7.66-10 7.66v12.255h6V19.83c0-1.128.895-2.043 2-2.043h4c1.105 0 2 .915 2 2.043v6.127h6V13.702Zm-8 6.128v6.127C18 26.98 18.5 28 20 28h6c1.105 0 2-.915 2-2.043V13.702c0-.643-.296-1.248-.8-1.634l-10-7.66a1.967 1.967 0 0 0-2.4 0l-10 7.66c-.504.386-.8.991-.8 1.634v12.255C4 27.085 4.895 28 6 28h6c1.5 0 2-1.021 2-2.043V19.83h4Z" clip-rule="evenodd"/>
</svg>
