<svg xmlns="http://www.w3.org/2000/svg" width="33" height="32" fill="currentColor" viewBox="0 0 33 32">
  <path fill-rule="evenodd" d="M21.018 4.119c-.649-.267-1.369-.067-1.865.429L4.787 18.914a2.003 2.003 0 0 0-.587 1.445l.08 5.584a2.003 2.003 0 0 0 1.974 1.975l5.587.082a2.004 2.004 0 0 0 1.446-.587l14.365-14.365c.496-.496.696-1.217.429-1.866a13.154 13.154 0 0 0-2.826-4.239 13.134 13.134 0 0 0-4.237-2.824Zm5.12 7.61a11.163 11.163 0 0 0-2.3-3.37 11.15 11.15 0 0 0-3.367-2.296l-.851.851c.677.671 1.756 1.751 2.877 2.875.959.96 1.958 1.965 2.785 2.796l.855-.855Zm-2.273 2.272L13.15 24.717c-.841-.838-1.907-1.9-2.926-2.911a867.047 867.047 0 0 0-2.761-2.734L18.203 8.33c.654.649 1.728 1.723 2.876 2.873.96.962 1.96 1.967 2.787 2.798ZM6.284 25.915l-.075-5.266c.64.63 1.592 1.574 2.603 2.578l2.78 2.765-5.308-.077Z" clip-rule="evenodd"/>
</svg>
