<svg xmlns="http://www.w3.org/2000/svg" width="33" height="32" fill="currentColor" viewBox="0 0 33 32">
  <path fill-rule="evenodd" d="M12.761 21.003a6.3 6.3 0 0 0 3.434 1.014 6.266 6.266 0 0 0 2.374-.442 6.134 6.134 0 0 0 2.014-1.302 5.947 5.947 0 0 0 1.338-1.96A5.82 5.82 0 0 0 22.375 16c0-1.19-.363-2.353-1.042-3.343a6.149 6.149 0 0 0-2.773-2.216 6.336 6.336 0 0 0-3.571-.343 6.234 6.234 0 0 0-3.164 1.647 5.969 5.969 0 0 0-1.691 3.081 5.87 5.87 0 0 0 .351 3.477 6.055 6.055 0 0 0 2.276 2.7Zm1.842-8.734a4.125 4.125 0 0 1 1.592-.28 4.125 4.125 0 0 1 1.591.28c.506.197.965.492 1.35.867.385.375.688.822.89 1.314a3.84 3.84 0 0 1 .289 1.55 3.828 3.828 0 0 1-.288 1.55 3.937 3.937 0 0 1-.89 1.314c-.386.375-.845.67-1.35.867a4.122 4.122 0 0 1-1.592.28 4.122 4.122 0 0 1-1.592-.28 4.037 4.037 0 0 1-1.35-.867 3.912 3.912 0 0 1-.89-1.315A3.828 3.828 0 0 1 12.075 16a3.829 3.829 0 0 1 .288-1.55c.202-.492.505-.939.89-1.314.385-.375.845-.67 1.35-.867Z" clip-rule="evenodd"/>
  <path fill-rule="evenodd" d="m27.524 16.762 1.947 1.735c.36.307.598.726.675 1.185.077.46-.012.93-.253 1.332l-2.348 4.012a2.03 2.03 0 0 1-.753.733 2.104 2.104 0 0 1-1.029.27 2.11 2.11 0 0 1-.659-.1l-2.492-.823c-.436.28-.89.53-1.36.752l-.525 2.527a1.997 1.997 0 0 1-.73 1.172 2.096 2.096 0 0 1-1.33.443h-4.862a2.096 2.096 0 0 1-1.331-.443 1.998 1.998 0 0 1-.729-1.172l-.525-2.527a11.773 11.773 0 0 1-1.35-.752l-2.502.822a2.11 2.11 0 0 1-.66.1c-.36 0-.716-.093-1.028-.269a2.033 2.033 0 0 1-.753-.733l-2.431-4.012a1.962 1.962 0 0 1-.27-1.354c.077-.468.323-.894.692-1.203l1.947-1.685v-1.534l-1.947-1.735a1.992 1.992 0 0 1-.675-1.185 1.96 1.96 0 0 1 .253-1.332l2.43-4.012c.181-.304.44-.557.754-.733a2.103 2.103 0 0 1 1.028-.27c.222-.014.445.006.66.06l2.451.863c.436-.28.89-.53 1.36-.752l.525-2.527c.094-.462.352-.877.729-1.172A2.096 2.096 0 0 1 13.763 2h4.821c.484-.009.955.148 1.332.443a2 2 0 0 1 .728 1.172l.526 2.527c.466.221.917.473 1.349.752l2.503-.822a2.11 2.11 0 0 1 .659-.1c.361 0 .716.093 1.029.269.312.176.572.429.753.733l2.43 4.012c.255.402.356.88.284 1.348a1.99 1.99 0 0 1-.675 1.209l-1.977 1.685v1.534Zm-5.376 6.097 3.533 1.164 2.43-4.012-2.8-2.477c.19-1.038.19-2.1 0-3.138l2.8-2.407-2.43-4.012L22.138 9.1a9.706 9.706 0 0 0-2.781-1.574l-.732-3.56h-4.861l-.731 3.6a9.187 9.187 0 0 0-2.792 1.575L6.708 7.977l-2.43 4.012 2.801 2.477a8.693 8.693 0 0 0 0 3.139L4.278 20.01l2.43 4.012 3.544-1.123a9.706 9.706 0 0 0 2.78 1.574l.732 3.56h4.861l.732-3.6a9.187 9.187 0 0 0 2.791-1.575Z" clip-rule="evenodd"/>
</svg>
