<svg xmlns="http://www.w3.org/2000/svg" width="32" height="32" fill="currentColor" viewBox="0 0 32 32">
  <path d="M29.25 11.694a2.995 2.995 0 0 0-1.016-.72A3.106 3.106 0 0 0 27 10.72h-7V8.8a4.705 4.705 0 0 0-1.465-3.394A5.107 5.107 0 0 0 15 4c-.186 0-.368.05-.526.143a.975.975 0 0 0-.369.387L9.382 13.6H4c-.53 0-1.04.202-1.414.562-.375.36-.586.849-.586 1.358v10.56c0 .51.21.998.586 1.358.375.36.884.562 1.414.562h21.5c.73 0 1.437-.256 1.985-.72a2.847 2.847 0 0 0 .992-1.8l1.5-11.52a2.77 2.77 0 0 0-.11-1.208 2.852 2.852 0 0 0-.617-1.058ZM4 15.52h5v10.56H4V15.52Zm23.992-1.8-1.5 11.52a.95.95 0 0 1-.33.6c-.183.155-.418.24-.662.24H11V14.787l4.589-8.812c.68.13 1.292.484 1.731.999.44.515.68 1.16.68 1.826v2.88c0 .255.105.499.293.679.187.18.442.281.707.281h8a1.002 1.002 0 0 1 .75.325.924.924 0 0 1 .242.755Z"/>
</svg>
