<svg xmlns="http://www.w3.org/2000/svg" width="54" height="54" fill="none" viewBox="0 0 54 54">
  <g clip-path="url(#a)">
    <path fill="#D19835" d="M0 6.75A6.75 6.75 0 0 1 6.75 0H36a6.75 6.75 0 0 1 6.75 6.75v27A6.75 6.75 0 0 1 36 40.5H6.75A6.75 6.75 0 0 1 0 33.75v-27Z"/>
    <mask id="b" width="43" height="41" x="0" y="0" maskUnits="userSpaceOnUse" style="mask-type:alpha">
      <path fill="#E9F5F7" d="M0 6.75A6.75 6.75 0 0 1 6.75 0H36a6.75 6.75 0 0 1 6.75 6.75v27A6.75 6.75 0 0 1 36 40.5H6.75A6.75 6.75 0 0 1 0 33.75v-27Z"/>
    </mask>
    <g mask="url(#b)">
      <path fill="#F2BA5B" d="M11.25 13.5 42.75 0v13.5h-31.5Z"/>
    </g>
    <path fill="#FFD285" d="M54 20.25a6.75 6.75 0 0 0-6.75-6.75h-36v33.75A6.75 6.75 0 0 0 18 54h29.25A6.75 6.75 0 0 0 54 47.25v-27Z"/>
    <path fill="#fff" d="M18 24.75a2.25 2.25 0 0 1 2.25-2.25h4.5A2.25 2.25 0 0 1 27 24.75v4.5a2.25 2.25 0 0 1-2.25 2.25h-4.5A2.25 2.25 0 0 1 18 29.25v-4.5Zm0 13.5A2.25 2.25 0 0 1 20.25 36h4.5A2.25 2.25 0 0 1 27 38.25v4.5A2.25 2.25 0 0 1 24.75 45h-4.5A2.25 2.25 0 0 1 18 42.75v-4.5Z"/>
    <path fill="#fff" fill-rule="evenodd" d="M31.5 27a2.25 2.25 0 0 1 2.25-2.25h13.5a2.25 2.25 0 0 1 0 4.5h-13.5A2.25 2.25 0 0 1 31.5 27Zm0 13.5a2.25 2.25 0 0 1 2.25-2.25h13.5a2.25 2.25 0 0 1 0 4.5h-13.5a2.25 2.25 0 0 1-2.25-2.25Z" clip-rule="evenodd"/>
  </g>
  <defs>
    <clipPath id="a">
      <path fill="#fff" d="M0 0h54v54H0z"/>
    </clipPath>
  </defs>
</svg>
