<svg xmlns="http://www.w3.org/2000/svg" width="52" height="52" fill="none" viewBox="0 0 52 52">
  <path fill="#7624B7" d="M43.333 39a6.508 6.508 0 0 0-6.5 6.5c0 3.584 2.917 6.5 6.5 6.5 3.584 0 6.5-2.916 6.5-6.5s-2.916-6.5-6.5-6.5Zm0 10.833A4.338 4.338 0 0 1 39 45.5a4.338 4.338 0 0 1 4.333-4.333 4.338 4.338 0 0 1 4.334 4.333 4.338 4.338 0 0 1-4.334 4.333Zm-13-18.865L19.5 20.135l-1.532 1.532L28.802 32.5h-4.969v2.167h6.5A2.17 2.17 0 0 0 32.5 32.5V26h-2.167v4.968Zm13 .502-3.566-3.566-1.532 1.532 4.596 4.596a2.166 2.166 0 0 0 3.066 0l4.595-4.596-1.532-1.532-3.458 3.459v-9.696h-2.166l-.003 9.804ZM27.27 38.341l-1.532 1.532 3.458 3.46H19.5V45.5h9.804l-3.566 3.566 1.532 1.532 4.595-4.595a2.168 2.168 0 0 0 0-3.064l-4.595-4.598Z"/>
  <path fill="#E4CCFF" fill-rule="evenodd" d="M2.167 0h11.916v5.417H19.5v16.25H2.167V0Zm0 30.333h11.916v5.417H19.5V52H2.167V30.333ZM28.167 0h11.916v5.417H45.5l.002 16.25H28.167V0Z" clip-rule="evenodd"/>
  <path fill="#C478FF" d="M19.5 5.417 14.083 0v5.417H19.5Zm0 30.333-5.417-5.417v5.417H19.5Zm26-30.333L40.083 0v5.417H45.5Z"/>
</svg>
