<svg xmlns="http://www.w3.org/2000/svg" width="150" height="150" fill="none" viewBox="0 0 150 150">
  <rect width="150" height="150" fill="#D9EEF0" rx="75"/>
  <path fill="#fff" fill-rule="evenodd" d="M30.625 135.47V45.625h88.75v89.845C106.949 144.604 91.605 150 75 150s-31.949-5.396-44.375-14.53Zm28.75-29.22c0-2.071 1.237-3.75 2.763-3.75h25.724c1.526 0 2.763 1.679 2.763 3.75 0 2.071-1.237 3.75-2.763 3.75H62.138c-1.526 0-2.763-1.679-2.763-3.75Zm-6.25 16.25c0-2.071 1.237-3.75 2.763-3.75h38.224c1.526 0 2.763 1.679 2.763 3.75 0 2.071-1.237 3.75-2.763 3.75H55.888c-1.526 0-2.763-1.679-2.763-3.75Z" clip-rule="evenodd"/>
  <path fill="#6EBBC4" fill-rule="evenodd" d="M75 56.65c-10.714 0-19.375 8.66-19.375 19.375C55.625 86.739 64.285 95.4 75 95.4c10.714 0 19.375-8.66 19.375-19.375S85.715 56.65 75 56.65Zm-2.96 19.113-6.915-6.915 3.132-3.132 6.915 6.916 6.916-6.915 3.131 3.131-6.915 6.915 7.176 7.177-3.132 3.131-7.176-7.176-7.176 7.176-3.131-3.131 7.176-7.177Z" clip-rule="evenodd"/>
</svg>
