<svg xmlns="http://www.w3.org/2000/svg" width="120" height="120" fill="none" viewBox="0 0 120 120">
  <rect width="120" height="120" fill="#DBE0E8" rx="60"/>
  <path fill="#fff" fill-rule="evenodd" d="M24.5 108.376V36.5h71v71.876C85.56 115.683 73.284 120 60 120c-13.284 0-25.56-4.317-35.5-11.624ZM47.5 85c0-1.657.99-3 2.21-3h20.58c1.22 0 2.21 1.343 2.21 3s-.99 3-2.21 3H49.71c-1.22 0-2.21-1.343-2.21-3Zm-5 13c0-1.657.99-3 2.21-3h30.58c1.22 0 2.21 1.343 2.21 3s-.99 3-2.21 3H44.71c-1.22 0-2.21-1.343-2.21-3Z" clip-rule="evenodd"/>
  <path fill="#188AB0" fill-rule="evenodd" d="M60 45.32c-8.572 0-15.5 6.928-15.5 15.5 0 8.571 6.928 15.5 15.5 15.5s15.5-6.929 15.5-15.5c0-8.572-6.928-15.5-15.5-15.5Zm-2.367 15.29L52.1 55.079l2.505-2.505 5.533 5.532 5.532-5.532 2.505 2.505-5.532 5.533 5.74 5.74-2.504 2.506-5.741-5.741-5.741 5.74-2.505-2.504 5.74-5.741Z" clip-rule="evenodd"/>
</svg>
