<svg xmlns="http://www.w3.org/2000/svg" width="32" height="32" viewBox="0 0 32 32">
  <path fill-rule="evenodd" d="M3.975 4.187c-.228.429-.308 1.17-.308 2.473s.08 2.044.308 2.473c.09.169.199.276.36.355.182.089.487.168.998.168h3.998c.511 0 .816-.08.998-.168a.766.766 0 0 0 .36-.355c.228-.429.308-1.17.308-2.473 0-1.301-.08-2.043-.308-2.472a.767.767 0 0 0-.36-.356c-.182-.089-.486-.168-.997-.168H5.333c-.511 0-.816.08-.998.168a.766.766 0 0 0-.36.355Zm4.357 7.469h.999c.698 0 1.332-.105 1.877-.372a2.763 2.763 0 0 0 1.246-1.212c.5-.94.543-2.196.543-3.412 0-1.215-.043-2.47-.542-3.411a2.764 2.764 0 0 0-1.246-1.212c-.545-.267-1.179-.373-1.877-.373H5.333c-.698 0-1.332.105-1.877.372A2.763 2.763 0 0 0 2.21 3.248c-.5.94-.543 2.196-.543 3.412 0 1.216.042 2.472.543 3.412.274.515.68.935 1.246 1.212.545.267 1.179.372 1.877.372h.999v7.065c0 1.822 0 3.29.155 4.445.161 1.2.506 2.21 1.309 3.01.753.753 1.69 1.104 2.796 1.278.854.133 1.876.171 3.083.182.008.215.022.416.046.599.064.473.213.974.624 1.386h.001c.412.413.914.563 1.388.627.43.057.96.057 1.536.057h.119c.577 0 1.106 0 1.537-.057.474-.064.975-.214 1.386-.626l.002-.001c.41-.413.56-.914.623-1.387.058-.43.058-.959.058-1.535v-.119c0-.575 0-1.104-.058-1.534-.063-.473-.213-.973-.623-1.385l-.002-.001c-.412-.413-.913-.563-1.387-.626-.43-.058-.96-.058-1.536-.058h-.12c-.576 0-1.105 0-1.535.058-.474.064-.976.213-1.388.626h-.001c-.41.413-.56.913-.623 1.386a6.3 6.3 0 0 0-.047.59c-1.175-.011-2.064-.047-2.773-.158-.866-.136-1.345-.369-1.693-.716-.368-.368-.608-.885-.74-1.862-.135-1.006-.137-2.34-.137-4.252v-.997h5.344c.008.213.022.412.046.593.063.473.212.975.624 1.387.412.412.914.562 1.388.626.43.058.96.058 1.536.058h.119c.577 0 1.106 0 1.537-.058.474-.064.975-.214 1.386-.626.412-.412.562-.913.625-1.386.058-.43.058-.958.058-1.535v-.119c0-.576 0-1.105-.058-1.535-.063-.473-.213-.974-.623-1.386l-.003-.002c-.412-.411-.913-.56-1.386-.624-.43-.058-.96-.057-1.536-.057h-.12c-.576 0-1.105 0-1.535.057-.473.064-.974.213-1.387.624l-.002.002c-.411.413-.56.914-.623 1.387-.024.181-.038.38-.046.594H8.332v-3.995Zm7.429 3.428.002-.002a.201.201 0 0 1 .013-.006.948.948 0 0 1 .224-.05c.281-.037.673-.04 1.33-.04.655 0 1.048.003 1.329.04a.946.946 0 0 1 .223.05l.014.006.002.002v.001a.95.95 0 0 1 .056.236c.038.282.04.674.04 1.33s-.002 1.048-.04 1.328a.937.937 0 0 1-.055.236l-.001.002-.003.002-.014.006a.932.932 0 0 1-.222.05c-.28.038-.673.04-1.33.04-.656 0-1.048-.003-1.329-.04a.946.946 0 0 1-.236-.056l-.003-.002-.001-.002a.942.942 0 0 1-.055-.235c-.038-.28-.04-.672-.04-1.33 0-.656.002-1.048.04-1.33a.94.94 0 0 1 .055-.235v-.002Zm-.001 3.133Zm3.138 0Zm4.118-2.323a1 1 0 0 1 1.073-.922c1.357.103 2.284.689 2.855 1.444a3.67 3.67 0 0 1 .732 2.07v8.61l.922-1.001a1 1 0 1 1 1.471 1.354l-2.083 2.263a.89.89 0 0 1-.023.025c-.336.34-.85.691-1.533.577-.553-.092-.981-.47-1.273-.752a1.068 1.068 0 0 1-.049-.051l-1.87-2.09a1 1 0 0 1 1.491-1.333l.947 1.058v-8.64a1.682 1.682 0 0 0-.327-.883c-.213-.283-.607-.596-1.411-.657a1 1 0 0 1-.922-1.072Zm-7.255 9.18.003-.002a.943.943 0 0 1 .236-.056c.281-.038.673-.04 1.33-.04.656 0 1.048.002 1.329.04a.94.94 0 0 1 .236.056l.003.001.001.003.006.014c.012.03.033.094.05.222.038.281.04.672.04 1.328 0 .655-.003 1.047-.04 1.328a.941.941 0 0 1-.056.238l-.002.002-.002.002a.94.94 0 0 1-.236.056c-.28.037-.673.04-1.33.04-.656 0-1.048-.003-1.329-.04a.943.943 0 0 1-.236-.057l-.003-.001-.001-.003a.947.947 0 0 1-.056-.236c-.038-.281-.04-.673-.04-1.329 0-.655.002-1.047.04-1.328a.94.94 0 0 1 .056-.236l.001-.003Z" clip-rule="evenodd"/>
</svg>
