<svg xmlns="http://www.w3.org/2000/svg" width="52" height="52" fill="none" viewBox="0 0 52 52">
  <path fill="#BDE3FF" d="M17.333 2.167H41.98c1.047 0 1.896.873 1.896 1.95v37.05H17.333v-39Z"/>
  <path fill="#6AAAF4" d="M43.875 8.017h1.896c1.047 0 1.896.873 1.896 1.95v5.85c0 1.077-.85 1.95-1.896 1.95h-1.896v-9.75Zm0 11.7h1.896c1.047 0 1.896.873 1.896 1.95v5.85c0 1.077-.85 1.95-1.896 1.95h-1.896v-9.75Zm0 11.7h1.896c1.047 0 1.896.873 1.896 1.95v5.85c0 1.077-.85 1.95-1.896 1.95h-1.896v-9.75Z"/>
  <path fill="#B4D0DA" d="M4.333 41.167h39.542v8.666H8.667A4.333 4.333 0 0 1 4.333 45.5v-4.333Z"/>
  <path fill="#6AAAF4" d="M4.333 8.667a6.5 6.5 0 0 1 6.5-6.5h6.5v39h-13v-32.5Z"/>
</svg>
