<svg xmlns="http://www.w3.org/2000/svg" width="20" height="20" fill="currentColor" viewBox="0 0 20 20">
  <path d="M4.895 5.803v-1.25h13.854v1.25H4.895Zm0 5v-1.25H18.75v1.25H4.896Zm0 5.208v-1.25H18.75v1.25H4.896ZM2.084 6.04a.804.804 0 0 1-.593-.24.81.81 0 0 1-.24-.593c0-.235.08-.433.24-.593.16-.16.358-.24.593-.24a.81.81 0 0 1 .595.24c.16.16.24.358.239.593a.822.822 0 0 1-.834.834Zm0 5.002a.804.804 0 0 1-.593-.24.81.81 0 0 1-.24-.594c0-.235.08-.433.24-.593.16-.16.358-.24.593-.24a.81.81 0 0 1 .595.24c.16.16.24.358.239.593a.822.822 0 0 1-.834.834Zm.002 5.207a.804.804 0 0 1-.593-.24.81.81 0 0 1-.24-.593c0-.236.08-.434.24-.594.16-.16.358-.24.593-.24a.81.81 0 0 1 .594.24.8.8 0 0 1 .24.594.822.822 0 0 1-.834.833Z"/>
</svg>
