<svg xmlns="http://www.w3.org/2000/svg" width="221" height="26" fill="none" viewBox="0 0 221 26">
  <path fill="#6EBBC4" fill-rule="evenodd" d="M4.534 16.84h11.948v-1.038H4.534v1.039Z" clip-rule="evenodd"/>
  <path fill="#6EBBC4" d="M23.54 17.056a1.039 1.039 0 0 0 0-1.47l-4.04-4.04a1.039 1.039 0 0 0-1.47 0l-4.04 4.04a1.039 1.039 0 0 0 0 1.47l4.04 4.04a1.04 1.04 0 0 0 1.47 0l4.04-4.04Zm-12.987.1a1.039 1.039 0 0 0 0-1.47L7.247 12.38a1.039 1.039 0 0 0-1.47 0l-3.306 3.306a1.039 1.039 0 0 0 0 1.47l3.306 3.306a1.04 1.04 0 0 0 1.47 0l3.306-3.306Z"/>
  <path fill="#FF9893" d="M21.032 5.119a1.039 1.039 0 0 0 0-1.47L18.091.711a1.04 1.04 0 0 0-1.468 0l-2.94 2.938a1.039 1.039 0 0 0 0 1.47l2.94 2.938a1.04 1.04 0 0 0 1.469 0l2.939-2.938Zm3.484 2.615a.52.52 0 0 0 0-.734l-1.47-1.47a.52.52 0 0 0-.734 0L20.842 7a.52.52 0 0 0 0 .734l1.47 1.47a.52.52 0 0 0 .734 0l1.47-1.47Z"/>
  <path fill="#78D0ED" d="m28 20.299-1.102-1.102-1.102 1.102 1.102 1.101z"/>
  <rect width="3.117" height="3.117" fill="#78D0ED" rx="1" transform="scale(-1 1) rotate(-45 15.165 40.002)"/>
  <path fill="#FFCE7F" fill-rule="evenodd" d="M3.065 10.402h7.273V9.364H3.065v1.04Z" clip-rule="evenodd"/>
  <path fill="#FFCE7F" d="M14.278 10.618a1.039 1.039 0 0 0 0-1.47l-2.204-2.204a1.039 1.039 0 0 0-1.47 0L8.402 9.148a1.039 1.039 0 0 0 0 1.47l2.204 2.204a1.039 1.039 0 0 0 1.47 0l2.203-2.204Zm-8.831 0a1.039 1.039 0 0 0 0-1.47L3.61 7.312a1.039 1.039 0 0 0-1.469 0L.304 9.148a1.039 1.039 0 0 0 0 1.47l1.837 1.836a1.04 1.04 0 0 0 1.47 0l1.836-1.836Z"/>
  <path fill="#78D0ED" fill-rule="evenodd" d="M3.065 22.87h7.273v-1.039H3.065v1.04Z" clip-rule="evenodd"/>
  <path fill="#78D0ED" d="M14.278 23.085a1.039 1.039 0 0 0 0-1.469l-2.204-2.204a1.039 1.039 0 0 0-1.47 0l-2.203 2.204a1.039 1.039 0 0 0 0 1.47l2.204 2.203a1.039 1.039 0 0 0 1.47 0l2.203-2.204Zm-8.831 0a1.039 1.039 0 0 0 0-1.469L3.61 19.779a1.04 1.04 0 0 0-1.469 0L.304 21.616a1.039 1.039 0 0 0 0 1.47l1.837 1.836a1.039 1.039 0 0 0 1.47 0l1.836-1.837Z"/>
  <path fill="#394B5F" d="M40.84 19.16c-.928 0-1.781-.144-2.56-.432a6.598 6.598 0 0 1-2.048-1.232 5.385 5.385 0 0 1-1.328-1.84 5.625 5.625 0 0 1-.464-2.288c0-.821.155-1.584.464-2.288a5.576 5.576 0 0 1 1.344-1.84 6.175 6.175 0 0 1 2.032-1.216c.779-.299 1.632-.448 2.56-.448.95 0 1.813.144 2.592.432a6.036 6.036 0 0 1 2.032 1.232 5.385 5.385 0 0 1 1.328 1.84c.31.704.464 1.467.464 2.288a5.63 5.63 0 0 1-.464 2.288 5.55 5.55 0 0 1-1.328 1.856 6.175 6.175 0 0 1-2.032 1.216c-.779.288-1.643.432-2.592.432Zm.016-2.272a4.69 4.69 0 0 0 1.584-.256c.49-.181.912-.432 1.264-.752s.624-.693.816-1.12c.203-.427.304-.89.304-1.392a3.2 3.2 0 0 0-.304-1.392 3.203 3.203 0 0 0-.816-1.104 3.826 3.826 0 0 0-1.264-.752 4.534 4.534 0 0 0-1.584-.272c-.576 0-1.11.09-1.6.272-.48.181-.901.427-1.264.736-.363.31-.64.683-.832 1.12-.181.427-.272.89-.272 1.392 0 .501.09.97.272 1.408.192.427.47.8.832 1.12.363.31.784.555 1.264.736.49.17 1.024.256 1.6.256ZM49.911 19V7.8h5.856c.694 0 1.323.16 1.888.48.566.31 1.014.736 1.344 1.28a3.39 3.39 0 0 1 .512 1.84c0 .715-.176 1.355-.528 1.92a3.83 3.83 0 0 1-1.408 1.36 4.027 4.027 0 0 1-1.984.496h-3.28V19h-2.4Zm2.368-5.984h2.976c.32 0 .613-.07.88-.208.267-.139.475-.33.624-.576.16-.245.24-.517.24-.816 0-.288-.08-.539-.24-.752a1.412 1.412 0 0 0-.624-.512 2.007 2.007 0 0 0-.88-.192H52.28v3.056ZM62.224 19V7.8h8.816v2.112h-6.48v6.976h6.592V19h-8.928Zm1.216-4.688v-2.048h6.832v2.048H63.44ZM74.146 19V7.8h2.24l7.44 8.368h-.352a20.309 20.309 0 0 1-.129-1.056l-.096-1.024a550.62 550.62 0 0 0-.063-1.04l-.033-1.056V7.8h2.352V19h-2.271l-7.569-8.448.512.016c.032.33.064.645.096.944.043.299.075.587.097.864l.063.832a23.906 23.906 0 0 1 .065 1.76V19h-2.353Zm21.845 0L91.143 7.8h2.544l2.512 6c.086.224.182.47.288.736a33.14 33.14 0 0 1 .688 1.696c.107.288.203.576.288.864l-.512.016c.107-.363.23-.725.368-1.088.15-.373.299-.741.448-1.104.15-.373.294-.741.432-1.104l2.368-6.016h2.544l-4.8 11.2h-2.32Zm9.108 0V7.8h5.312c.949 0 1.792.144 2.528.432a5.231 5.231 0 0 1 1.904 1.2c.522.512.917 1.11 1.184 1.792.277.672.416 1.397.416 2.176 0 .79-.139 1.525-.416 2.208a5.069 5.069 0 0 1-1.184 1.792c-.512.501-1.142.896-1.888 1.184-.747.277-1.595.416-2.544.416h-5.312Zm2.4-1.744-.256-.416h3.088c.608 0 1.141-.085 1.6-.256a3.183 3.183 0 0 0 1.136-.736 2.89 2.89 0 0 0 .672-1.104c.149-.416.224-.864.224-1.344 0-.48-.075-.923-.224-1.328a2.754 2.754 0 0 0-.672-1.088c-.31-.32-.694-.57-1.152-.752-.448-.181-.976-.272-1.584-.272h-3.136l.304-.384v7.68Zm9.8 1.744 5.008-11.2h2.288l5.008 11.2h-2.496l-2.928-6.576a9.357 9.357 0 0 1-.288-.64c-.086-.235-.176-.47-.272-.704l-.256-.704c-.075-.245-.144-.47-.208-.672l.512-.016a15.18 15.18 0 0 1-.24.72c-.075.224-.16.453-.256.688-.086.235-.176.464-.272.688-.096.224-.192.453-.288.688L119.699 19h-2.4Zm2.288-2.256.8-1.936h6.016l.544 1.936h-7.36ZM131.536 19V7.8h5.856c.693 0 1.323.16 1.888.48.565.31 1.013.736 1.344 1.28.341.544.512 1.157.512 1.84 0 .715-.176 1.355-.528 1.92a3.831 3.831 0 0 1-1.408 1.36 4.027 4.027 0 0 1-1.984.496h-3.28V19h-2.4Zm2.368-5.984h2.976c.32 0 .613-.07.88-.208.267-.139.475-.33.624-.576.16-.245.24-.517.24-.816 0-.288-.08-.539-.24-.752a1.41 1.41 0 0 0-.624-.512 2.008 2.008 0 0 0-.88-.192h-2.976v3.056ZM147.489 19V7.8h5.856c.694 0 1.323.16 1.888.48.566.31 1.014.736 1.344 1.28.342.544.512 1.157.512 1.84 0 .715-.176 1.355-.528 1.92a3.824 3.824 0 0 1-1.408 1.36 4.024 4.024 0 0 1-1.984.496h-3.28V19h-2.4Zm2.368-5.984h2.976c.32 0 .614-.07.88-.208.267-.139.475-.33.624-.576.16-.245.24-.517.24-.816 0-.288-.08-.539-.24-.752a1.41 1.41 0 0 0-.624-.512 2.005 2.005 0 0 0-.88-.192h-2.976v3.056Zm15.577 6.144c-.928 0-1.782-.144-2.56-.432a6.586 6.586 0 0 1-2.048-1.232 5.38 5.38 0 0 1-1.328-1.84 5.613 5.613 0 0 1-.464-2.288c0-.821.154-1.584.464-2.288a5.576 5.576 0 0 1 1.344-1.84 6.172 6.172 0 0 1 2.032-1.216c.778-.299 1.632-.448 2.56-.448.949 0 1.813.144 2.592.432a6.043 6.043 0 0 1 2.032 1.232 5.394 5.394 0 0 1 1.328 1.84 5.63 5.63 0 0 1 .464 2.288 5.63 5.63 0 0 1-.464 2.288 5.559 5.559 0 0 1-1.328 1.856 6.182 6.182 0 0 1-2.032 1.216c-.779.288-1.643.432-2.592.432Zm.016-2.272a4.69 4.69 0 0 0 1.584-.256c.49-.181.912-.432 1.264-.752s.624-.693.816-1.12c.202-.427.304-.89.304-1.392 0-.501-.102-.965-.304-1.392a3.203 3.203 0 0 0-.816-1.104 3.833 3.833 0 0 0-1.264-.752 4.536 4.536 0 0 0-1.584-.272c-.576 0-1.11.09-1.6.272-.48.181-.902.427-1.264.736-.363.31-.64.683-.832 1.12a3.51 3.51 0 0 0-.272 1.392c0 .501.09.97.272 1.408.192.427.469.8.832 1.12.362.31.784.555 1.264.736.49.17 1.024.256 1.6.256ZM174.505 19V7.8h5.824c.757 0 1.429.155 2.016.464a3.372 3.372 0 0 1 1.392 1.248c.331.533.496 1.147.496 1.84a3.42 3.42 0 0 1-.528 1.872 3.88 3.88 0 0 1-1.424 1.328c-.597.32-1.264.48-2 .48h-3.456V19h-2.32Zm7.488 0-3.392-5.056 2.496-.4 3.712 5.472-2.816-.016Zm-5.168-5.92h3.248c.331 0 .624-.07.88-.208a1.7 1.7 0 0 0 .608-.592c.16-.245.24-.523.24-.832 0-.32-.085-.597-.256-.832a1.554 1.554 0 0 0-.672-.544 2.227 2.227 0 0 0-.944-.192h-3.104v3.2ZM190.024 19V9.96h-3.904V7.8h10.288v2.16h-3.984V19h-2.4Zm6.431 0 5.008-11.2h2.288l5.008 11.2h-2.496l-2.928-6.576a9.357 9.357 0 0 1-.288-.64c-.086-.235-.176-.47-.272-.704l-.256-.704c-.075-.245-.144-.47-.208-.672l.512-.016a15.18 15.18 0 0 1-.24.72c-.075.224-.16.453-.256.688-.086.235-.176.464-.272.688-.096.224-.192.453-.288.688L198.855 19h-2.4Zm2.288-2.256.8-1.936h6.016l.544 1.936h-7.36ZM210.692 19V7.8h2.4v9.04h6.32V19h-8.72Z"/>
</svg>
