<svg xmlns="http://www.w3.org/2000/svg" width="32" height="29" fill="none" viewBox="0 0 32 29">
  <path fill="#6EBBC4" fill-rule="evenodd" d="M5.182 18.782h13.655v-1.187H5.182v1.187Z" clip-rule="evenodd"/>
  <path fill="#6EBBC4" d="M26.903 19.028a1.187 1.187 0 0 0 0-1.68l-4.618-4.617a1.187 1.187 0 0 0-1.68 0l-4.617 4.618a1.187 1.187 0 0 0 0 1.68l4.617 4.617a1.187 1.187 0 0 0 1.68 0l4.618-4.618Zm-14.843.114a1.187 1.187 0 0 0 0-1.679l-3.778-3.778a1.187 1.187 0 0 0-1.68 0l-3.778 3.778a1.187 1.187 0 0 0 0 1.68l3.779 3.778a1.187 1.187 0 0 0 1.679 0l3.778-3.779Z"/>
  <path fill="#FF9893" d="M24.036 5.385a1.187 1.187 0 0 0 0-1.679L20.678.348a1.187 1.187 0 0 0-1.68 0L15.64 3.706a1.187 1.187 0 0 0 0 1.68l3.358 3.358a1.187 1.187 0 0 0 1.68 0l3.358-3.359Zm3.982 2.99a.594.594 0 0 0 0-.84l-1.68-1.679a.594.594 0 0 0-.839 0l-1.68 1.68a.594.594 0 0 0 0 .84l1.68 1.678a.594.594 0 0 0 .84 0l1.679-1.679Z"/>
  <path fill="#78D0ED" d="m32 22.735-1.26-1.26-1.258 1.26 1.259 1.259z"/>
  <rect width="3.562" height="3.562" fill="#78D0ED" rx="1" transform="scale(-1 1) rotate(-45 16.771 45.485)"/>
  <path fill="#FFCE7F" fill-rule="evenodd" d="M3.502 11.424h8.312v-1.187H3.502v1.187Z" clip-rule="evenodd"/>
  <path fill="#FFCE7F" d="M16.318 11.67a1.187 1.187 0 0 0 0-1.679l-2.519-2.519a1.187 1.187 0 0 0-1.68 0L9.602 9.991a1.187 1.187 0 0 0 0 1.68l2.519 2.518a1.187 1.187 0 0 0 1.68 0l2.518-2.519Zm-10.093 0a1.187 1.187 0 0 0 0-1.679L4.126 7.892a1.187 1.187 0 0 0-1.68 0L.349 9.991a1.187 1.187 0 0 0 0 1.68l2.099 2.098a1.187 1.187 0 0 0 1.679 0l2.1-2.099Z"/>
  <path fill="#78D0ED" fill-rule="evenodd" d="M3.502 25.673h8.312v-1.187H3.502v1.187Z" clip-rule="evenodd"/>
  <path fill="#78D0ED" d="M16.318 25.919a1.187 1.187 0 0 0 0-1.68l-2.519-2.518a1.187 1.187 0 0 0-1.68 0L9.602 24.24a1.187 1.187 0 0 0 0 1.679l2.519 2.519a1.187 1.187 0 0 0 1.68 0l2.518-2.52Zm-10.093 0a1.187 1.187 0 0 0 0-1.68l-2.099-2.098a1.187 1.187 0 0 0-1.68 0L.349 24.24a1.187 1.187 0 0 0 0 1.679l2.099 2.099a1.187 1.187 0 0 0 1.679 0l2.1-2.1Z"/>
</svg>
