<svg xmlns="http://www.w3.org/2000/svg" width="24" height="25" fill="none" viewBox="0 0 24 25">
  <path fill="#CEF1DA" fill-rule="evenodd" d="M16.052 10.74H7.93a3.48 3.48 0 0 1-.57.046c-1.761 0-3.188-1.312-3.188-2.93 0-1.373 1.025-2.525 2.41-2.844a1.496 1.496 0 0 1-.348-.955c0-.868.756-1.571 1.688-1.571.506 0 .96.207 1.27.536C9.28 1.338 10.692 0 12.422 0c1.786 0 3.234 1.428 3.234 3.189 0 .343-.055.673-.156.983.18-.03.366-.045.555-.045 1.85 0 3.351 1.48 3.351 3.306 0 1.74-1.363 3.167-3.093 3.297v.01h-.261Z" clip-rule="evenodd"/>
  <path fill="#288D97" fill-rule="evenodd" d="M.469 4.22h3.773v.704h-3.07v6.355H.469V4.22Zm22.664-.046h-3.211v.703h2.508v7.902h.703V4.174Zm-8.719 18.149H9.75v-.704h4.664v.704Zm-10.266.094c2.292 0 4.149-.567 4.149-1.267v1.736h-.011c-.158.655-1.95 1.172-4.138 1.172-2.187 0-3.98-.517-4.137-1.172H0V21.15c0 .7 1.857 1.267 4.148 1.267Z" clip-rule="evenodd"/>
  <ellipse cx="4.148" cy="21.151" fill="#E9F5F7" rx="4.148" ry="1.266"/>
  <path fill="#288D97" fill-rule="evenodd" d="M4.148 18.571c2.292 0 4.149-.567 4.149-1.266v1.735h-.011c-.158.656-1.95 1.172-4.138 1.172-2.187 0-3.98-.516-4.137-1.172H0v-1.735c0 .7 1.857 1.266 4.148 1.266Z" clip-rule="evenodd"/>
  <ellipse cx="4.148" cy="17.305" fill="#E9F5F7" rx="4.148" ry="1.266"/>
  <path fill="#288D97" fill-rule="evenodd" d="M4.148 14.913c2.292 0 4.149-.567 4.149-1.266v1.735h-.011c-.158.656-1.95 1.173-4.138 1.173-2.187 0-3.98-.517-4.137-1.173H0v-1.735c0 .7 1.857 1.266 4.148 1.266Z" clip-rule="evenodd"/>
  <ellipse cx="4.148" cy="13.647" fill="#E9F5F7" rx="4.148" ry="1.266"/>
  <path fill="#35BC9C" fill-rule="evenodd" d="M24 14.022h-8.25V17.4H24v-3.377Zm-6.61 2.533a.844.844 0 0 0 .757-.47h4.587a.375.375 0 0 0 0-.75h-4.587a.844.844 0 1 0-.756 1.22Z" clip-rule="evenodd"/>
  <path fill="#35BC9C" fill-rule="evenodd" d="M24 17.399h-8.25v3.376H24V17.4Zm-6.61 2.532a.844.844 0 0 0 .757-.469h4.587a.375.375 0 0 0 0-.75h-4.587a.844.844 0 1 0-.756 1.22Z" clip-rule="evenodd"/>
  <path fill="#35BC9C" fill-rule="evenodd" d="M24 20.775h-8.25v3.377H24v-3.377Zm-6.61 2.533a.844.844 0 0 0 .757-.47h4.587a.375.375 0 0 0 0-.75h-4.587a.844.844 0 1 0-.756 1.22Z" clip-rule="evenodd"/>
</svg>
