<svg xmlns="http://www.w3.org/2000/svg" width="32" height="32" viewBox="0 0 32 32">
  <path fill-rule="evenodd" d="M7 7v18h18V7H7ZM6 5a1 1 0 0 0-1 1v20a1 1 0 0 0 1 1h20a1 1 0 0 0 1-1V6a1 1 0 0 0-1-1H6Z" clip-rule="evenodd"/>
  <path fill-rule="evenodd" d="M16 2a1 1 0 0 1 1 1v6a1 1 0 1 1-2 0V3a1 1 0 0 1 1-1Zm0 20a1 1 0 0 1 1 1v6a1 1 0 1 1-2 0v-6a1 1 0 0 1 1-1ZM2 16a1 1 0 0 1 1-1h6a1 1 0 1 1 0 2H3a1 1 0 0 1-1-1Zm20 0a1 1 0 0 1 1-1h6a1 1 0 1 1 0 2h-6a1 1 0 0 1-1-1Z" clip-rule="evenodd"/>
  <path d="M17 16a1 1 0 1 1-2 0 1 1 0 0 1 2 0Z"/>
</svg>
