<svg xmlns="http://www.w3.org/2000/svg" width="33" height="32" fill="currentColor" viewBox="0 0 33 32">
  <path d="m2.524 18.04 1.5-11.52a2.846 2.846 0 0 1 .992-1.8A3.073 3.073 0 0 1 7.001 4h21.5c.53 0 1.04.202 1.414.562.375.36.586.849.586 1.358v10.56c0 .51-.21.998-.586 1.358-.375.36-.883.562-1.414.562h-5.383l-4.722 9.07a.976.976 0 0 1-.369.387c-.158.094-.34.143-.526.143a5.107 5.107 0 0 1-3.536-1.406 4.705 4.705 0 0 1-1.464-3.394v-1.92h-7a3.11 3.11 0 0 1-1.235-.255 2.994 2.994 0 0 1-1.016-.72 2.851 2.851 0 0 1-.617-1.057 2.77 2.77 0 0 1-.11-1.208ZM23.5 16.48h5V5.92h-5v10.56ZM4.75 19.035a.983.983 0 0 0 .338.241c.13.056.27.085.412.084h8c.265 0 .52.101.707.281a.94.94 0 0 1 .293.679v2.88c0 .666.24 1.311.68 1.826.44.515 1.051.868 1.731.999l4.589-8.812V5.92H7c-.244 0-.479.085-.662.24a.949.949 0 0 0-.33.6l-1.5 11.52a.908.908 0 0 0 .242.755Z"/>
</svg>
