<svg xmlns="http://www.w3.org/2000/svg" width="24" height="24" fill="none" viewBox="0 0 24 24">
  <circle cx="9.359" cy="6.862" r="4.939" fill="#FFEBE6"/>
  <path fill="#FF9277" fill-rule="evenodd" d="m5.464 12.734-1.555.015a1.989 1.989 0 0 0-1.85 1.308L.122 19.375a1.989 1.989 0 0 0 1.869 2.67h14.883a1.989 1.989 0 0 0 1.872-2.662l-1.948-5.423a1.989 1.989 0 0 0-1.89-1.317l-1.035.01a9.043 9.043 0 0 1-4.282 1.07 9.044 9.044 0 0 1-4.127-.989Z" clip-rule="evenodd" opacity=".7"/>
  <path fill="#F96C49" d="M19.47 5.039a.331.331 0 0 0-.332.331v.862h1.99V5.37a.331.331 0 0 0-.332-.331H19.47Zm0 7.889a.331.331 0 0 1-.332-.331v-.862h1.99v.862a.331.331 0 0 1-.332.331H19.47Zm-2-6.611a.331.331 0 0 0-.453.121l-.663 1.149a.332.332 0 0 0 .121.453l.746.43.995-1.722-.746-.43Zm-.453 5.328a.331.331 0 0 0 .453.122l.746-.431-.995-1.723-.746.431a.332.332 0 0 0-.121.453l.663 1.148Zm5.785-5.328a.331.331 0 0 1 .453.121l.663 1.149a.332.332 0 0 1-.122.453l-.746.43-.995-1.722.747-.43Zm.453 5.262a.331.331 0 0 1-.453.121l-.747-.43.995-1.723.746.43a.332.332 0 0 1 .122.454l-.663 1.148Z"/>
  <path fill="#F96C49" fill-rule="evenodd" d="M20.133 12a2.983 2.983 0 1 0 0-5.967 2.983 2.983 0 0 0 0 5.967Zm.066-1.127a1.856 1.856 0 1 0 0-3.713 1.856 1.856 0 0 0 0 3.713Z" clip-rule="evenodd"/>
</svg>
