<svg xmlns="http://www.w3.org/2000/svg" width="32" height="33" fill="currentColor" viewBox="0 0 32 33">
  <path fill-rule="evenodd" d="M9 23.385a1 1 0 0 1-1-1v-4.9a5.002 5.002 0 0 0 1 9.9 5.002 5.002 0 0 0 4.9-4H9Zm6.93-2a7.062 7.062 0 0 1 0 2 7.001 7.001 0 0 1-13.93-1 7.002 7.002 0 0 1 13.93-1Zm-5.93-3.9a5.006 5.006 0 0 1 3.9 3.9H10v-3.9Zm7-16.1a1 1 0 0 1 1 1v7.307h3.08L24.476 4.6a1 1 0 0 1 .832-.445H29a1 1 0 1 1 0 2h-3.157l-3.396 5.093a1 1 0 0 1-.832.445H18v1.693h11a1 1 0 0 1 0 2H17a1 1 0 0 1-1-1v-12a1 1 0 0 1 1-1Zm8 17a1 1 0 0 1 1 1v9a1 1 0 1 1-2 0v-9a1 1 0 0 1 1-1Zm4 3.272a1 1 0 0 1 1 1v5.728a1 1 0 1 1-2 0v-5.728a1 1 0 0 1 1-1Zm-8 3.273a1 1 0 0 1 1 1v2.455a1 1 0 1 1-2 0V25.93a1 1 0 0 1 1-1Z" clip-rule="evenodd"/>
  <path d="M9 2.885a1.5 1.5 0 1 1-3 0 1.5 1.5 0 0 1 3 0Zm5 4a1.5 1.5 0 1 1-3 0 1.5 1.5 0 0 1 3 0Zm-7 1a1.5 1.5 0 1 1-3 0 1.5 1.5 0 0 1 3 0Zm-2 5a1.5 1.5 0 1 1-3 0 1.5 1.5 0 0 1 3 0Zm6-2a1.5 1.5 0 1 1-3 0 1.5 1.5 0 0 1 3 0Z"/>
</svg>
