<svg xmlns="http://www.w3.org/2000/svg" width="32" height="33" viewBox="0 0 32 33">
  <path fill-rule="evenodd" d="M3 7.965a1 1 0 0 1 1-1h12a1 1 0 1 1 0 2H4a1 1 0 0 1-1-1Zm18.546 0a1 1 0 0 1 1-1H28a1 1 0 1 1 0 2h-5.454a1 1 0 0 1-1-1Z" clip-rule="evenodd"/>
  <path fill-rule="evenodd" d="M21.454 11.147a1 1 0 0 1-1-1V4.692a1 1 0 0 1 2 0v5.455a1 1 0 0 1-1 1Zm-10.908 9.818a1 1 0 0 1-1-1v-6.546a1 1 0 0 1 2 0v6.546a1 1 0 0 1-1 1ZM16 29.692a1 1 0 0 1-1-1v-6.545a1 1 0 1 1 2 0v6.545a1 1 0 0 1-1 1Zm-1-13a1 1 0 0 1 1-1h12a1 1 0 1 1 0 2H16a1 1 0 0 1-1-1Z" clip-rule="evenodd"/>
  <path fill-rule="evenodd" d="M15 25.42a1 1 0 0 1 1-1h12a1 1 0 1 1 0 2H16a1 1 0 0 1-1-1Zm-12 0a1 1 0 0 1 1-1h6.546a1 1 0 0 1 0 2H4a1 1 0 0 1-1-1Zm0-8.728a1 1 0 0 1 1-1h5.455a1 1 0 0 1 0 2H4a1 1 0 0 1-1-1Z" clip-rule="evenodd"/>
</svg>
