<svg xmlns="http://www.w3.org/2000/svg" width="20" height="20" fill="currentColor" viewBox="0 0 20 20">
  <path d="M16.25 3.748a2.499 2.499 0 0 0-2.411 1.875h-2.633A4.994 4.994 0 0 0 5.12 1.379a4.998 4.998 0 0 0-3.741 3.739A4.992 4.992 0 0 0 5.625 11.2v2.631a2.5 2.5 0 0 0-1.028 4.294A2.5 2.5 0 0 0 8.32 14.85a2.5 2.5 0 0 0-1.444-1.017v-2.63A4.97 4.97 0 0 0 9.31 10.19l2.293 2.292c-.23.38-.352.817-.354 1.261a2.498 2.498 0 0 0 2.988 2.45 2.5 2.5 0 0 0 1.822-3.406 2.498 2.498 0 0 0-2.31-1.542 2.47 2.47 0 0 0-1.262.354l-2.294-2.293a4.965 4.965 0 0 0 1.013-2.434h2.632a2.495 2.495 0 1 0 2.41-3.123ZM7.5 16.242a1.249 1.249 0 1 1-2.498 0 1.249 1.249 0 0 1 2.498 0ZM6.25 9.995a3.751 3.751 0 0 1-3.678-4.479 3.747 3.747 0 0 1 5.113-2.732A3.75 3.75 0 0 1 10 6.247a3.751 3.751 0 0 1-3.75 3.748ZM15 13.743a1.249 1.249 0 0 1-2.134.884A1.25 1.25 0 1 1 15 13.743Zm1.25-6.246a1.25 1.25 0 0 1-.884-2.133 1.25 1.25 0 1 1 .884 2.133Z"/>
</svg>
