<svg xmlns="http://www.w3.org/2000/svg" width="33" height="32" fill="currentColor" viewBox="0 0 33 32">
  <path fill-rule="evenodd" d="M17.63 5.939c-6.178 0-11.03 4.513-11.03 9.898 0 5.386 4.852 9.899 11.03 9.899 2.266 0 3.638-.46 5.408-1.53a1.006 1.006 0 0 1 1.374.328.984.984 0 0 1-.331 1.36c-2.05 1.241-3.78 1.821-6.452 1.821-7.11 0-13.029-5.236-13.029-11.878C4.6 9.196 10.52 3.96 17.63 3.96c4.99 0 8.69 3.835 10.815 7.161a.984.984 0 0 1-.31 1.366 1.006 1.006 0 0 1-1.38-.307c-2.034-3.183-5.212-6.24-9.126-6.24Z" clip-rule="evenodd"/>
  <path fill-rule="evenodd" d="M27.6 3.96c.552 0 1 .443 1 .99v7.423c0 .547-.448.99-1 .99h-8c-.552 0-1-.443-1-.99 0-.547.448-.99 1-.99h7V4.95c0-.546.448-.99 1-.99Z" clip-rule="evenodd"/>
</svg>
