<svg xmlns="http://www.w3.org/2000/svg" width="33" height="32" fill="none" viewBox="0 0 33 32">
  <path fill="#868C98" fill-rule="evenodd" d="M11.9 5h9v2h-9V5Zm-2 2V5a2 2 0 0 1 2-2h9a2 2 0 0 1 2 2v2h5.5v2h-2.211c0 .066-.004.133-.01.2l-1.815 18a2 2 0 0 1-1.99 1.8H10.431a2 2 0 0 1-1.99-1.799l-1.819-18A2.032 2.032 0 0 1 6.612 9H4.4V7h5.5Zm11 2H8.612l1.819 18h11.943l1.814-18H20.9Zm-8.5 5.216L14.388 14l.863 7.953-1.989.216-.862-7.953Zm7.89-.019L18.3 14l-.788 7.961 1.99.197.788-7.96Z" clip-rule="evenodd"/>
</svg>
