<svg width="20" height="20" viewBox="0 0 20 20" xmlns="http://www.w3.org/2000/svg">
    <path d="M4.69673 15.3033C4.45265 15.0593 4.45265 14.6635 4.69673 14.4194L14.4194 4.69673C14.6635 4.45265 15.0593 4.45265 15.3033 4.69673C15.5474 4.94081 15.5474 5.33654 15.3033 5.58061L5.58061 15.3033C5.33654 15.5474 4.94081 15.5474 4.69673 15.3033Z"/>
    <path d="M15.3033 15.3033C15.0593 15.5474 14.6635 15.5474 14.4194 15.3033L4.69673 5.58061C4.45265 5.33654 4.45265 4.94081 4.69673 4.69673C4.94081 4.45265 5.33654 4.45265 5.58061 4.69673L15.3033 14.4194C15.5474 14.6635 15.5474 15.0593 15.3033 15.3033Z"/>
</svg>
