<svg xmlns="http://www.w3.org/2000/svg" width="32" height="32" viewBox="0 0 32 32">
  <path fill-rule="evenodd" d="M5 22V9.5C5 6.462 9.925 4 16 4s11 2.462 11 5.5V22c0 1.963-1.566 3.472-3.482 4.43C21.542 27.418 18.883 28 16 28s-5.543-.582-7.518-1.57C6.566 25.472 5 23.964 5 22zm17.884-10.4C24.662 10.711 25 9.853 25 9.5s-.338-1.211-2.116-2.1C21.225 6.57 18.794 6 16 6c-2.794 0-5.225.57-6.884 1.4C7.338 8.289 7 9.147 7 9.5s.338 1.211 2.116 2.1c1.659.83 4.09 1.4 6.884 1.4 2.794 0 5.225-.57 6.884-1.4zM7 12.663V16c0 .798.673 1.79 2.376 2.641C11.02 19.463 13.36 20 16 20c2.64 0 4.98-.537 6.624-1.359C24.327 17.79 25 16.798 25 16v-3.555C22.957 13.933 19.654 15 16 15c-3.72 0-7.01-.923-9-2.337zm0 6.85c.45.346.953.652 1.482.917C10.458 21.418 13.117 22 16 22s5.543-.582 7.518-1.57A9.123 9.123 0 0025 19.512V22c0 .798-.673 1.79-2.376 2.641C20.98 25.463 18.64 26 16 26c-2.64 0-4.98-.537-6.624-1.359C7.673 23.79 7 22.798 7 22v-2.488z" clip-rule="evenodd"/>
</svg>
