<svg xmlns="http://www.w3.org/2000/svg" width="32" height="32" viewBox="0 0 32 32">
  <path d="M26.231 4.268a1.114 1.114 0 00-1.45 0l-3.405 3.718a1.071 1.071 0 00-.104 1.528c.4.45 1.096.496 1.553.102l1.58-1.838v19.139c0 .598.494 1.083 1.101 1.083.608 0 1.101-.485 1.101-1.083V7.777l1.568 1.839a1.113 1.113 0 001.553-.102c.4-.45.354-1.135-.104-1.528l-3.393-3.718z"/>
  <path fill-rule="evenodd" d="M8 6a1 1 0 011 1v1h4V7a1 1 0 112 0v1h4a1 1 0 011 1v16a1 1 0 01-1 1H3a1 1 0 01-1-1V9a1 1 0 011-1h4V7a1 1 0 011-1zm-1 5v-1H4v4h14v-4h-3v1a1 1 0 11-2 0v-1H9v1a1 1 0 11-2 0zM4 24v-8h14v8H4z" clip-rule="evenodd"/>
</svg>
