<svg xmlns="http://www.w3.org/2000/svg" width="32" height="32" viewBox="0 0 32 32">
  <path fill-rule="evenodd" d="M27.702 11.421a1.018 1.018 0 0 0 0-1.44l-5.684-5.683a1.018 1.018 0 0 0-1.439 0L4.298 20.579c-.19.19-.298.45-.298.72v5.683C4 27.544 4.456 28 5.018 28H10.7c.27 0 .53-.107.72-.298l16.281-16.281Zm-7.544 4.666-9.878 9.878H6.035V21.72l9.878-9.878 4.245 4.245Zm3.474-3.474 1.911-1.912L21.3 6.457l-1.912 1.911 4.245 4.245Zm-5.684-2.806-.596.596 4.245 4.245.596-.596-4.245-4.245Z" clip-rule="evenodd"/>
</svg>
