<svg xmlns="http://www.w3.org/2000/svg" width="32" height="33" viewBox="0 0 32 33">
  <path fill-rule="evenodd" d="M5.293 5.216a1 1 0 0 1 1.414 0L22.27 20.777c1.417-1.35 2.252-2.802 2.623-3.79-2.269-5.694-6.941-7.055-8.884-7.055-.241 0-.478.012-.711.034-.568.054-1.123-.297-1.23-.857-.101-.528.233-1.047.766-1.114a9.592 9.592 0 0 1 1.175-.072c2.66 0 8.317 1.801 10.873 8.69l.119.32-.1.327c-.384 1.264-1.402 3.185-3.217 4.932l3.024 3.024a1 1 0 0 1-1.414 1.414l-3.152-3.152a14.567 14.567 0 0 1-4.617 2.2c-.95.266-1.99.341-3.012.094-2.837-.686-7.203-2.963-9.369-8.434L5 16.977l.135-.365c.54-1.455 1.706-3.593 3.486-5.383.16-.16.325-.319.496-.474a.915.915 0 0 1 .175-.126l-4-3.999a1 1 0 0 1 0-1.414Zm13.313 14.727 2.096 2.096a12.655 12.655 0 0 1-3.708 1.703c-.692.193-1.384.23-2.02.076-2.314-.56-5.922-2.406-7.834-6.861a14.092 14.092 0 0 1 2.883-4.303c.106-.106.213-.21.322-.312.12-.111.211-.244.272-.388l2.344 2.344a4.028 4.028 0 0 0-1.002 2.667c0 2.22 1.78 4.019 3.977 4.019a3.94 3.94 0 0 0 2.67-1.041Zm-1.418-1.418-2.81-2.81c-.27.343-.43.778-.43 1.25a2 2 0 0 0 1.988 2.01c.474 0 .91-.169 1.252-.45Z" clip-rule="evenodd"/>
</svg>
