<svg xmlns="http://www.w3.org/2000/svg" width="32" height="32" viewBox="0 0 32 32">
  <path fill-rule="evenodd" d="M19.912 16.042c0 2.22-1.78 4.019-3.976 4.019-2.197 0-3.977-1.8-3.977-4.019 0-2.22 1.78-4.019 3.977-4.019 2.196 0 3.976 1.8 3.976 4.02Zm-1.988 0a2 2 0 0 1-1.988 2.01 2 2 0 0 1-1.989-2.01 2 2 0 0 1 1.989-2.01 2 2 0 0 1 1.988 2.01Z" clip-rule="evenodd"/>
  <path fill-rule="evenodd" d="M15.936 7c-3.125 0-5.6 1.509-7.387 3.306-1.78 1.79-2.946 3.928-3.486 5.383l-.135.365.143.361c2.165 5.472 6.532 7.748 9.369 8.434 1.022.247 2.061.172 3.011-.093 5.879-1.642 8.677-6.119 9.377-8.418l.1-.328-.12-.32C24.254 8.8 18.597 7 15.937 7Zm-1.034 15.895c-2.314-.56-5.922-2.406-7.835-6.861a14.094 14.094 0 0 1 2.884-4.303c1.542-1.551 3.541-2.722 5.985-2.722 1.942 0 6.615 1.361 8.883 7.055-.701 1.871-3.068 5.407-7.897 6.755-.692.193-1.385.23-2.02.076Z" clip-rule="evenodd"/>
</svg>
