<svg xmlns="http://www.w3.org/2000/svg" width="20" height="20" fill="none" viewBox="0 0 20 20">
  <path fill="#77889A" fill-rule="evenodd" d="M2.5 3.125c0-.345.28-.625.625-.625h13.75c.345 0 .625.28.625.625v1.084a.625.625 0 0 1-.15.406l-4.954 6.54v3.927a.625.625 0 0 1-.24.492l-2.917 1.793a.625.625 0 0 1-1.01-.492v-5.72l-5.58-6.54a.625.625 0 0 1-.149-.406V3.125Zm1.25.625v.229l5.58 6.54c.096.112.15.256.15.405v4.668l1.666-.815v-3.853c0-.149.053-.293.15-.406l4.954-6.54V3.75H3.75Z" clip-rule="evenodd"/>
</svg>
