<svg xmlns="http://www.w3.org/2000/svg" width="32" height="32" viewBox="0 0 32 32">
  <path fill-rule="evenodd" d="M8.888 3.892a64.662 64.662 0 0 1 14.224 0c2.582.288 4.664 2.318 4.968 4.905.56 4.785.56 9.62 0 14.404-.304 2.588-2.386 4.617-4.967 4.907a64.659 64.659 0 0 1-14.225 0c-2.582-.29-4.664-2.32-4.968-4.905a61.9 61.9 0 0 1 0-14.406C4.224 6.21 6.306 4.18 8.888 3.892Zm13.911 3.962a1.361 1.361 0 0 0-1.36 1.357 1.357 1.357 0 0 0 1.36 1.358 1.36 1.36 0 0 0 1.36-1.358 1.356 1.356 0 0 0-1.36-1.357ZM9.541 15.999c0-1.71.68-3.35 1.892-4.56a6.465 6.465 0 0 1 9.134 0 6.443 6.443 0 0 1 0 9.12 6.465 6.465 0 0 1-9.134 0A6.444 6.444 0 0 1 9.54 16Z" clip-rule="evenodd"/>
  <path d="M16 11.833a4.167 4.167 0 1 0 0 8.334 4.167 4.167 0 0 0 0-8.334Z"/>
</svg>
