<svg width="32" height="32" viewBox="0 0 32 32" fill="none" xmlns="http://www.w3.org/2000/svg">
<path fill-rule="evenodd" clip-rule="evenodd" d="M9.17249 4.37662C13.7103 3.87446 18.2898 3.87446 22.8276 4.37662C25.3066 4.65291 27.3053 6.60132 27.5964 9.08538C28.1345 13.679 28.1345 18.3196 27.5964 22.9132C27.3053 25.3973 25.3066 27.3457 22.8289 27.6233C18.2906 28.1256 13.7107 28.1256 9.17249 27.6233C6.69342 27.3457 4.69477 25.3973 4.40365 22.9145C3.86545 18.3205 3.86545 13.6794 4.40365 9.08538C4.69477 6.60132 6.69342 4.65291 9.17249 4.37662ZM22.5273 8.1796C22.1811 8.1796 21.849 8.31691 21.6042 8.56132C21.3594 8.80573 21.2219 9.13723 21.2219 9.48288C21.2219 9.82853 21.3594 10.16 21.6042 10.4044C21.849 10.6489 22.1811 10.7862 22.5273 10.7862C22.8735 10.7862 23.2056 10.6489 23.4504 10.4044C23.6952 10.16 23.8328 9.82853 23.8328 9.48288C23.8328 9.13723 23.6952 8.80573 23.4504 8.56132C23.2056 8.31691 22.8735 8.1796 22.5273 8.1796ZM9.79911 15.9993C9.79911 14.3574 10.4524 12.7828 11.6153 11.6219C12.7782 10.4609 14.3554 9.8087 16 9.8087C17.6446 9.8087 19.2218 10.4609 20.3847 11.6219C21.5476 12.7828 22.201 14.3574 22.201 15.9993C22.201 17.6411 21.5476 19.2157 20.3847 20.3767C19.2218 21.5377 17.6446 22.1899 16 22.1899C14.3554 22.1899 12.7782 21.5377 11.6153 20.3767C10.4524 19.2157 9.79911 17.6411 9.79911 15.9993Z" fill="#77889A"/>
<path d="M16 12C14.9391 12 13.9217 12.4214 13.1716 13.1716C12.4214 13.9217 12 14.9391 12 16C12 17.0609 12.4214 18.0783 13.1716 18.8284C13.9217 19.5786 14.9391 20 16 20C17.0609 20 18.0783 19.5786 18.8284 18.8284C19.5786 18.0783 20 17.0609 20 16C20 14.9391 19.5786 13.9217 18.8284 13.1716C18.0783 12.4214 17.0609 12 16 12Z" fill="#77889A"/>
</svg>
