<svg xmlns="http://www.w3.org/2000/svg" width="32" height="33" viewBox="0 0 32 33">
  <path fill-rule="evenodd" d="M19.793 4.754a1 1 0 0 1 1.414 0l6.5 6.5a1 1 0 0 1 0 1.415l-15.5 15.5a1 1 0 0 1-.707.293H5a1 1 0 0 1-1-1v-6.5a1 1 0 0 1 .293-.708l15.5-15.5ZM6 21.376v5.085h5.086l14.5-14.5L20.5 6.876 6 21.376Z" clip-rule="evenodd"/>
  <path fill-rule="evenodd" d="M17.293 8.254a1 1 0 0 1 1.414 0l6.5 6.5a1 1 0 0 1 .255.433l1 3.5a1 1 0 0 1-.255.982l-4.5 4.5a1 1 0 0 1-1.414-1.415l4.084-4.084-.767-2.685-6.317-6.316a1 1 0 0 1 0-1.415ZM4.822 20.227a1 1 0 0 1 1.413.056l6 6.5a1 1 0 1 1-1.47 1.357l-6-6.5a1 1 0 0 1 .057-1.413Z" clip-rule="evenodd"/>
</svg>
