<svg xmlns="http://www.w3.org/2000/svg" width="20" height="20" fill="currentColor" viewBox="0 0 20 20">
  <path d="M19.929 7.528a1.484 1.484 0 0 0-.469-.702 1.4 1.4 0 0 0-.764-.317l-5.302-.474L11.316.908a1.467 1.467 0 0 0-.524-.66 1.387 1.387 0 0 0-1.58 0 1.466 1.466 0 0 0-.524.66L6.616 6.035l-5.307.477a1.4 1.4 0 0 0-.768.315c-.22.181-.384.426-.471.704a1.535 1.535 0 0 0-.017.856c.075.281.23.533.442.723l4.027 3.65-1.207 5.422c-.063.283-.045.58.053.853s.271.51.498.682a1.389 1.389 0 0 0 1.577.07l4.553-2.87 4.562 2.87a1.389 1.389 0 0 0 1.578-.07c.227-.172.4-.409.498-.682a1.53 1.53 0 0 0 .052-.853l-1.205-5.427 4.025-3.645a1.49 1.49 0 0 0 .442-.725c.075-.281.069-.58-.02-.857Zm-1.359.463-4.026 3.645a1.486 1.486 0 0 0-.421.662c-.08.256-.091.53-.032.792l1.21 5.43-4.56-2.87a1.381 1.381 0 0 0-1.476 0l-4.553 2.87 1.202-5.426a1.535 1.535 0 0 0-.032-.793 1.487 1.487 0 0 0-.422-.662L1.433 7.996v-.008l5.306-.476c.259-.024.507-.12.717-.28.21-.159.374-.374.474-.623l2.072-5.12 2.071 5.12c.1.249.265.464.475.623.21.16.458.256.717.28l5.307.476v.006l-.002-.003Z"/>
</svg>
