<svg xmlns="http://www.w3.org/2000/svg" width="32" height="32" viewBox="0 0 32 32">
  <path fill-rule="evenodd" d="M12.19 17.371a1.01 1.01 0 010 1.414l-3.919 3.978a.975.975 0 01-1.393 0L2.697 18.52a1.01 1.01 0 010-1.414.975.975 0 011.393 0l3.484 3.536 3.223-3.27a.975.975 0 011.394 0z" clip-rule="evenodd"/>
  <path fill-rule="evenodd" d="M18.175 5.836c-5.442 0-9.854 4.477-9.854 10v5.5H6.35v-5.5c0-6.628 5.294-12 11.825-12 6.53 0 11.825 5.372 11.825 12 0 6.627-5.294 12-11.825 12v-2c5.442 0 9.854-4.477 9.854-10s-4.412-10-9.854-10z" clip-rule="evenodd"/>
</svg>
