<svg xmlns="http://www.w3.org/2000/svg" width="32" height="32" viewBox="0 0 32 32">
  <path fill-rule="evenodd" d="M12.561 21.517a6.18 6.18 0 0 0 3.434 1.042 6.118 6.118 0 0 0 6.18-6.18 6.18 6.18 0 1 0-9.614 5.138Zm1.842-8.97a4.03 4.03 0 0 1 1.592-.288 4.03 4.03 0 0 1 4.12 4.12 4.026 4.026 0 0 1-4.12 4.12 4.03 4.03 0 0 1-4.12-4.12 4.028 4.028 0 0 1 2.528-3.832Z" clip-rule="evenodd"/>
  <path fill-rule="evenodd" d="m27.325 17.162 1.946 1.782a2.06 2.06 0 0 1 .422 2.585l-2.348 4.12a2.06 2.06 0 0 1-1.782 1.03 2.055 2.055 0 0 1-.659-.103l-2.492-.845c-.436.288-.89.546-1.36.773l-.525 2.595a2.06 2.06 0 0 1-2.06 1.659h-4.862a2.06 2.06 0 0 1-2.06-1.659l-.525-2.595a11.671 11.671 0 0 1-1.35-.773l-2.502.845c-.213.07-.436.105-.66.103a2.059 2.059 0 0 1-1.781-1.03l-2.431-4.12a2.06 2.06 0 0 1 .422-2.627l1.947-1.73v-1.576l-1.947-1.782a2.06 2.06 0 0 1-.422-2.585l2.43-4.12a2.06 2.06 0 0 1 1.782-1.03 2.06 2.06 0 0 1 .66.062l2.451.886c.436-.287.89-.546 1.36-.773l.525-2.595A2.06 2.06 0 0 1 13.564 2h4.82a2.06 2.06 0 0 1 2.06 1.659l.526 2.595c.466.228.917.486 1.349.773l2.503-.845a2.06 2.06 0 0 1 .659-.103 2.06 2.06 0 0 1 1.782 1.03l2.43 4.12a2.06 2.06 0 0 1-.39 2.627l-1.979 1.73v1.576Zm-5.377 6.262 3.533 1.195 2.43-4.12-2.8-2.544a9.169 9.169 0 0 0 0-3.224l2.8-2.472-2.43-4.12-3.543 1.154a9.641 9.641 0 0 0-2.781-1.617l-.732-3.657h-4.861l-.731 3.698a9.125 9.125 0 0 0-2.792 1.617L6.508 8.139l-2.43 4.12 2.801 2.544a9.167 9.167 0 0 0 0 3.224l-2.801 2.472 2.43 4.12 3.544-1.154a9.64 9.64 0 0 0 2.78 1.617l.732 3.657h4.861l.732-3.698a9.125 9.125 0 0 0 2.791-1.617Z" clip-rule="evenodd"/>
</svg>
