<svg xmlns="http://www.w3.org/2000/svg" width="32" height="32" viewBox="0 0 32 32">
  <path d="M19.194 4.81c0-1.397-1.664-2.124-2.688-1.173L10.31 9.386a.8.8 0 0 1-.544.214H5.594a2.4 2.4 0 0 0-2.4 2.4v8a2.4 2.4 0 0 0 2.4 2.4h4.172a.8.8 0 0 1 .544.213l6.196 5.75c1.024.949 2.688.224 2.688-1.173V4.81Zm-7.796 5.748 6.196-5.748v22.38l-6.196-5.75a2.4 2.4 0 0 0-1.632-.64H5.594a.8.8 0 0 1-.8-.8v-8a.8.8 0 0 1 .8-.8h4.172c.606 0 1.189-.23 1.632-.642ZM24.41 7.403a.8.8 0 0 1 1.13.064 12.8 12.8 0 0 1 0 17.066.8.8 0 0 1-1.193-1.067 11.2 11.2 0 0 0 0-14.933.8.8 0 0 1 .063-1.13Zm-1.882 13.29a.8.8 0 0 1-.293-1.093 7.196 7.196 0 0 0 0-7.2.802.802 0 0 1 .579-1.223.8.8 0 0 1 .805.423 8.797 8.797 0 0 1 .002 8.8.8.8 0 0 1-1.093.293Z"/>
</svg>
