<svg width="32" height="33" viewBox="0 0 32 33" fill="none" xmlns="http://www.w3.org/2000/svg">
<path d="M19.1936 4.96343C19.1936 3.56663 17.5296 2.84023 16.5056 3.79063L10.3104 9.53943C10.1626 9.67698 9.96829 9.75357 9.7664 9.75383H5.5936C4.95708 9.75383 4.34663 10.0067 3.89655 10.4568C3.44646 10.9069 3.1936 11.5173 3.1936 12.1538V20.1538C3.1936 20.7904 3.44646 21.4008 3.89655 21.8509C4.34663 22.301 4.95708 22.5538 5.5936 22.5538H9.7664C9.96808 22.5537 10.1624 22.6297 10.3104 22.7666L16.5056 28.517C17.5296 29.4658 19.1936 28.741 19.1936 27.3442V4.96343ZM11.3984 10.7122L17.5936 4.96343V27.3442L11.3984 21.5938C10.9546 21.1823 10.3716 20.9538 9.7664 20.9538H5.5936C5.38143 20.9538 5.17795 20.8695 5.02792 20.7195C4.87789 20.5695 4.7936 20.366 4.7936 20.1538V12.1538C4.7936 11.9417 4.87789 11.7382 5.02792 11.5881C5.17795 11.4381 5.38143 11.3538 5.5936 11.3538H9.7664C10.3716 11.3539 10.9546 11.1237 11.3984 10.7122ZM24.4096 7.55703C24.488 7.48706 24.5794 7.43321 24.6785 7.39856C24.7777 7.36391 24.8828 7.34913 24.9877 7.35507C25.0926 7.36102 25.1953 7.38756 25.2899 7.43319C25.3845 7.47883 25.4692 7.54266 25.5392 7.62103C27.6379 9.96773 28.7982 13.0056 28.7982 16.1538C28.7982 19.3021 27.6379 22.3399 25.5392 24.6866C25.3971 24.8424 25.1992 24.9358 24.9886 24.9465C24.778 24.9571 24.5716 24.8842 24.4145 24.7435C24.2574 24.6029 24.1622 24.4058 24.1496 24.1953C24.137 23.9848 24.208 23.7778 24.3472 23.6194C26.1837 21.566 27.199 18.9079 27.199 16.153C27.199 13.3982 26.1837 10.74 24.3472 8.68663C24.2057 8.52856 24.1328 8.32075 24.1445 8.10891C24.1562 7.89707 24.2515 7.69856 24.4096 7.55703ZM22.528 20.8466C22.3443 20.7405 22.2102 20.5658 22.1553 20.3609C22.1004 20.1559 22.1291 19.9376 22.2352 19.7538C22.8675 18.6594 23.2003 17.4178 23.2003 16.1538C23.2003 14.8899 22.8675 13.6483 22.2352 12.5538C22.1773 12.4628 22.1385 12.361 22.1209 12.2545C22.1034 12.148 22.1076 12.0391 22.1333 11.9343C22.159 11.8295 22.2056 11.731 22.2703 11.6447C22.335 11.5584 22.4166 11.486 22.51 11.432C22.6034 11.378 22.7068 11.3435 22.8139 11.3305C22.921 11.3175 23.0296 11.3263 23.1332 11.3563C23.2369 11.3864 23.3333 11.4371 23.4168 11.5054C23.5004 11.5737 23.5692 11.6582 23.6192 11.7538C24.3921 13.0914 24.7992 14.6088 24.7995 16.1536C24.7998 17.6984 24.3932 19.216 23.6208 20.5538C23.5147 20.7376 23.34 20.8716 23.135 20.9265C22.9301 20.9815 22.7117 20.9527 22.528 20.8466Z" fill="#77889A"/>
</svg>
