<svg xmlns="http://www.w3.org/2000/svg" width="32" height="32" viewBox="0 0 32 32">
  <path fill-rule="evenodd" d="M10.952 4c-.297 0-.596.054-.862.202-.271.15-.482.383-.62.694v.001l-4.39 9.575-.005.012a1.027 1.027 0 00-.075.382c0 .518.44.87.876.967h.002c.136.034.265.053.414.053.392 0 .812-.173 1.003-.64v-.001l1.135-2.636h5.046l1.167 2.655c.193.452.628.636 1.033.636.131 0 .261-.018.388-.054h.005c.4-.093.883-.399.883-.951a.84.84 0 00-.106-.418l-.003-.006-4.377-9.575a1.426 1.426 0 00-.634-.697 1.833 1.833 0 00-.86-.199h-.02zm.021 2.83l.123.283 1.542 3.512H9.271l1.566-3.492.042-.093.094-.21z" clip-rule="evenodd"/>
  <path d="M6.777 17.11c-.306 0-.586.087-.797.264a.919.919 0 00.005 1.416c.212.173.49.253.792.253h6.29l-7.319 6.57v.002l-.004.002c-.355.31-.744.655-.744 1.27 0 .346.168.64.433.835.258.19.594.28.955.28h9.417c.653 0 1.147-.416 1.147-.986a.89.89 0 00-.326-.7c-.21-.173-.487-.247-.784-.247H8.644l7.265-6.56.007-.005c.39-.347.758-.679.758-1.291 0-.327-.137-.623-.405-.826-.256-.194-.594-.277-.964-.277H6.777zM24.218 27.732a1.114 1.114 0 01-1.45 0l-3.392-3.717a1.071 1.071 0 01-.104-1.529c.4-.45 1.096-.496 1.553-.102l1.568 1.838V5.083c0-.598.493-1.083 1.1-1.083.608 0 1.101.485 1.101 1.083v19.14l1.58-1.839a1.113 1.113 0 011.554.102c.4.45.354 1.135-.104 1.529l-3.406 3.717z"/>
</svg>
