<svg xmlns="http://www.w3.org/2000/svg" width="32" height="32" viewBox="0 0 32 32">
  <path fill-rule="evenodd" d="M10.952 3.912c-.297 0-.596.054-.862.201-.271.15-.482.384-.62.695v.001l-4.39 9.575-.005.012a1.028 1.028 0 00-.075.382c0 .517.44.87.876.967h.002c.136.034.265.053.414.053.392 0 .812-.173 1.003-.64v-.002L8.43 12.52h5.046l1.167 2.655c.193.453.628.637 1.033.637.131 0 .261-.018.388-.054l.005-.001c.4-.092.883-.398.883-.95a.839.839 0 00-.106-.418l-.003-.006-4.377-9.575a1.426 1.426 0 00-.634-.697 1.833 1.833 0 00-.86-.2h-.02zm.021 2.83l.123.283 1.542 3.512H9.271l1.566-3.492.042-.093.094-.21z" clip-rule="evenodd"/>
  <path d="M6.777 17.022c-.306 0-.586.086-.797.264a.919.919 0 00.005 1.416c.212.173.49.253.792.253h6.29l-7.319 6.57v.002l-.004.002C5.39 25.84 5 26.183 5 26.8c0 .346.168.64.433.835.258.19.594.28.955.28h9.417c.653 0 1.147-.416 1.147-.986a.889.889 0 00-.326-.7c-.21-.173-.487-.247-.784-.247H8.644l7.265-6.56.007-.005c.39-.348.758-.679.758-1.291 0-.327-.137-.623-.405-.826-.256-.194-.594-.277-.964-.277H6.777zM24.231 4.268a1.114 1.114 0 00-1.45 0l-3.405 3.718a1.071 1.071 0 00-.104 1.528c.4.45 1.096.496 1.553.102l1.58-1.838v19.139c0 .598.494 1.083 1.101 1.083.608 0 1.101-.485 1.101-1.083V7.777l1.568 1.839a1.113 1.113 0 001.553-.102c.4-.45.354-1.135-.104-1.528l-3.393-3.718z"/>
</svg>
