<svg xmlns="http://www.w3.org/2000/svg" width="32" height="33" viewBox="0 0 32 33">
  <path fill-rule="evenodd" d="M15.293 9.906a1.007 1.007 0 0 0 0 1.42l9.333 9.373a.997.997 0 0 0 1.414 0 1.006 1.006 0 0 0 0-1.42l-9.333-9.373a.997.997 0 0 0-1.414 0Z" clip-rule="evenodd"/>
  <path fill-rule="evenodd" d="M5.96 20.7a.997.997 0 0 0 1.414 0l9.333-9.373c.39-.393.39-1.028 0-1.42a.997.997 0 0 0-1.414 0L5.96 19.278a1.007 1.007 0 0 0 0 1.42Z" clip-rule="evenodd"/>
  <path fill-rule="evenodd" d="M16 10.617c-.552 0-1 .404-1 .903v16.27c0 .499.448.903 1 .903s1-.404 1-.904V11.52c0-.499-.448-.903-1-.903ZM4 5.696c0 .555.413 1.005.923 1.005h22.154c.51 0 .923-.45.923-1.005 0-.554-.413-1.004-.923-1.004H4.923c-.51 0-.923.45-.923 1.004Z" clip-rule="evenodd"/>
</svg>
