<svg xmlns="http://www.w3.org/2000/svg" width="32" height="33" viewBox="0 0 32 33">
  <path fill-rule="evenodd" d="M28 9.716v-5.87a1 1 0 1 1 2 0v8.333a1 1 0 0 1-1 1h-8.454a1 1 0 1 1 0-2h5.992A12.024 12.024 0 0 0 16 5.013c-6.297 0-11.443 4.776-11.958 10.834-.046.55-.49 1-1.042 1s-1.004-.45-.964-1.001C2.555 8.663 8.62 3.013 16 3.013c5.089 0 9.548 2.683 12 6.703Zm1 7.13c.552 0 1.004.45.964 1C29.445 25.03 23.38 30.68 16 30.68a14.03 14.03 0 0 1-12-6.704v5.871a1 1 0 1 1-2 0v-8.333a1 1 0 0 1 1-1h8.454a1 1 0 0 1 0 2H5.463A12.027 12.027 0 0 0 16 28.679c6.297 0 11.443-4.776 11.958-10.833.047-.55.49-1 1.042-1Z" clip-rule="evenodd"/>
</svg>
