<svg xmlns="http://www.w3.org/2000/svg" width="32" height="32" viewBox="0 0 32 32">
  <path fill-rule="evenodd" d="M25.812 26c-.873-3.535-4.193-7.01-10.31-7-3.375.005-5.683 1.151-7.173 2.683A8.365 8.365 0 0 0 6.12 26h19.69Zm-10.314-9c7.764-.012 11.984 4.983 12.497 9.896A1 1 0 0 1 27 28H5a1 1 0 0 1-.999-1.05c.113-2.242 1.013-4.727 2.894-6.661 1.9-1.953 4.74-3.283 8.603-3.289Z" clip-rule="evenodd"/>
  <path fill-rule="evenodd" d="M15.5 17a5.5 5.5 0 1 0 0-11 5.5 5.5 0 0 0 0 11Zm0 2a7.5 7.5 0 1 0 0-15 7.5 7.5 0 0 0 0 15Z" clip-rule="evenodd"/>
</svg>
