<svg xmlns="http://www.w3.org/2000/svg" width="32" height="32" viewBox="0 0 32 32">
  <path fill-rule="evenodd" d="M28 15h2v6h-2v3.2c0 .994-.831 1.8-1.857 1.8H3.857C2.831 26 2 25.194 2 24.2V9.8C2 8.806 2.831 8 3.857 8H15.94l5.523-2.246a2 2 0 0 1 2.606 1.099L24.534 8h1.609C27.169 8 28 8.806 28 9.8V15Zm-5.785-7.394L11.415 12h-3.67c.194-.49.58-.903 1.107-1.117l2.17-.883H4v14h22v-3h-3a1 1 0 0 1-1-1v-4a1 1 0 0 1 1-1h3v-1H6v-2h20v-2h-.652l.466 1.146c.114.28.16.57.146.854h-2.245l.247-.1-1.747-4.294ZM24 19v-2h4v2h-4Z" clip-rule="evenodd"/>
</svg>
