<svg xmlns="http://www.w3.org/2000/svg" width="32" height="32" viewBox="0 0 32 32">
  <path fill-rule="evenodd" d="M4 5c0-.552.446-1 .996-1h10.43c.55 0 .996.448.996 1s-.446 1-.995 1H5.99v20h19.914v-9c0-.552.446-1 .995-1 .55 0 .996.448.996 1v10c0 .552-.446 1-.995 1H4.995A.998.998 0 0 1 4 27V5Z" clip-rule="evenodd"/>
  <path fill-rule="evenodd" d="M24.043 4.293a.993.993 0 0 0-1.408 0l-12.37 12.423a1.002 1.002 0 0 0-.291.707v3.681c0 .553.446 1 .996 1h3.207a.99.99 0 0 0 .69-.28L27.696 9.401a1.003 1.003 0 0 0 .013-1.427l-3.665-3.681ZM11.965 20.104v-2.267l7.938-7.972 2.182 2.191-8.31 8.048h-1.81Zm11.554-9.436 2.064-2-2.244-2.254-2.028 2.037 2.208 2.217Z" clip-rule="evenodd"/>
</svg>
