<svg xmlns="http://www.w3.org/2000/svg" width="32" height="32" viewBox="0 0 32 32">
  <path fill-rule="evenodd" d="M9.064 5.295a81.771 81.771 0 0 1 13.872 0l3.1.265c.84.07 1.633.446 2.255 1.065a4.218 4.218 0 0 1 1.172 2.35c.716 4.653.716 9.4 0 14.052a4.22 4.22 0 0 1-1.172 2.35 3.63 3.63 0 0 1-2.253 1.065l-3.101.263a81.752 81.752 0 0 1-13.873 0l-3.101-.263a3.631 3.631 0 0 1-2.255-1.065 4.218 4.218 0 0 1-1.172-2.35 46.332 46.332 0 0 1 0-14.052 4.219 4.219 0 0 1 1.172-2.35A3.631 3.631 0 0 1 5.962 5.56l3.1-.264.002-.001ZM13.23 19.72v-7.438c0-.08.02-.159.057-.228a.436.436 0 0 1 .154-.165.39.39 0 0 1 .418.006l5.698 3.719c.062.04.112.097.148.164a.482.482 0 0 1 0 .445.436.436 0 0 1-.148.165l-5.698 3.719a.39.39 0 0 1-.418.005.435.435 0 0 1-.154-.165.482.482 0 0 1-.057-.227Z" clip-rule="evenodd"/>
</svg>
